<svg id="Layer_1" data-name="Layer 1" xmlns="http://www.w3.org/2000/svg" viewBox="0 0 672.41 86.09"><defs><style>.cls-1{fill:none;stroke:#000;stroke-miterlimit:10;}.cls-2{font-size:12px;font-family:MyriadPro-Regular, Myriad Pro;}.cls-3{letter-spacing:-0.03em;}.cls-4{letter-spacing:0em;}.cls-5{letter-spacing:0.02em;}.cls-6{letter-spacing:-0.01em;}.cls-7{letter-spacing:0em;}.cls-8{letter-spacing:0.01em;}.cls-9{letter-spacing:-0.01em;}</style></defs><title>sec3-sub5-fig1</title><line class="cls-1" x1="0.5" y1="47" x2="594.5" y2="47"/><line class="cls-1" x1="0.5" y1="68" x2="0.5"/><line class="cls-1" x1="177.5" y1="68" x2="177.5"/><line class="cls-1" x1="542.5" x2="542.5" y2="68"/><text class="cls-2" transform="translate(0.78 67.65)">$t = 0$</text><text class="cls-2" transform="translate(177.47 67.72)">$t = x_1$</text><text class="cls-2" transform="translate(542.79 67.53)">$t = x_1 + x_2$</text><line class="cls-1" x1="8.06" y1="33.5" x2="169.94" y2="33.5"/><polygon points="1 33.5 10.95 37.56 8.59 33.5 10.95 29.44 1 33.5"/><polygon points="177 33.5 167.05 37.56 169.41 33.5 167.05 29.44 177 33.5"/><text class="cls-2" transform="translate(88.67 20.5)">$x_1$</text><line class="cls-1" x1="183.56" y1="33" x2="535.44" y2="33"/><polygon points="176.5 33 186.45 37.06 184.09 33 186.45 28.94 176.5 33"/><polygon points="542.5 33 532.55 37.06 534.91 33 532.55 28.94 542.5 33"/><text class="cls-2" transform="translate(359.67 20.5)">$x_2$</text><text class="cls-2" transform="translate(177.6 83.09)"><tspan class="cls-3">F</tspan><tspan class="cls-4" x="5.53" y="0">irst pa</tspan><tspan class="cls-5" x="36.14" y="0">r</tspan><tspan x="40.36" y="0">ticle is emit</tspan><tspan class="cls-6" x="96.8" y="0">t</tspan><tspan class="cls-7" x="100.7" y="0">ed</tspan></text><text class="cls-2" transform="translate(542.6 83.09)"><tspan class="cls-8">S</tspan><tspan class="cls-7" x="5.99" y="0">e</tspan><tspan class="cls-9" x="12" y="0">c</tspan><tspan x="17.3" y="0">ond pa</tspan><tspan class="cls-5" x="52.48" y="0">r</tspan><tspan class="cls-7" x="56.69" y="0">ticle is emit</tspan><tspan class="cls-6" x="113.13" y="0">t</tspan><tspan x="117.03" y="0">ed</tspan></text><text class="cls-2" transform="translate(614.08 46.59)">$\dots$</text></svg>