<?xml version="1.0" encoding="utf-8"?>
<!-- Generator: Adobe Illustrator 21.1.0, SVG Export Plug-In . SVG Version: 6.00 Build 0)  -->
<svg version="1.1" id="Layer_1" xmlns="http://www.w3.org/2000/svg" xmlns:xlink="http://www.w3.org/1999/xlink" x="0px" y="0px"
	 viewBox="0 0 612 792" style="enable-background:new 0 0 612 792;" xml:space="preserve">
<style type="text/css">
	.st0{fill:none;stroke:#000000;stroke-miterlimit:10;}
	.st1{font-family:'MyriadPro-Regular';}
	.st2{font-size:11.8251px;}
	.st3{font-size:12px;}
</style>
<rect x="72" y="71.5" class="st0" width="216.6" height="144.5"/>
<line class="st0" x1="180.3" y1="227.5" x2="180.3" y2="206.5"/>
<text transform="matrix(1.0148 0 0 1 180.2773 227.4551)" class="st1 st2">$2$</text>
<text transform="matrix(1 0 0 1 288.5547 227.4551)" class="st1 st3">$4$</text>
<text transform="matrix(1 0 0 1 72 227.4551)" class="st1 st3">$0$</text>
<text transform="matrix(1 0 0 1 72 71.5)" class="st1 st3">$1$</text>
<line class="st0" x1="63" y1="179.8" x2="81" y2="179.8"/>
<text transform="matrix(1 0 0 1 72 179.75)" class="st1 st3">$\frac{1}{4}$</text>
<line class="st0" x1="72" y1="216" x2="180.3" y2="179.8"/>
<circle class="st0" cx="180.3" cy="179.8" r="1.4"/>
<path class="st0" d="M180.3,179.8c59.8,0,108.2-48.4,108.2-108.3"/>
<text transform="matrix(1 0 0 1 72 242.75)" class="st1 st3">$(F_x(\cdot))$</text>
</svg>
