<?xml version="1.0" encoding="utf-8"?>
<!-- Generator: Adobe Illustrator 21.1.0, SVG Export Plug-In . SVG Version: 6.00 Build 0)  -->
<svg version="1.1" id="Layer_1" xmlns="http://www.w3.org/2000/svg" xmlns:xlink="http://www.w3.org/1999/xlink" x="0px" y="0px"
	 viewBox="0 0 612 792" style="enable-background:new 0 0 612 792;" xml:space="preserve">
<style type="text/css">
	.st0{fill:none;stroke:#000000;stroke-miterlimit:10;}
	.st1{font-family:'MyriadPro-Regular';}
	.st2{font-size:12px;}
	.st3{fill:#FFFFFF;stroke:#000000;stroke-miterlimit:10;}
	.st4{fill:none;}
	.st5{stroke:#000000;stroke-miterlimit:10;}
	.st6{fill:none;stroke:#000000;stroke-width:0.5;stroke-miterlimit:10;}
</style>
<line class="st0" x1="71.5" y1="143.5" x2="504" y2="143.5"/>
<text transform="matrix(1 0 0 1 216.5 162)" class="st1 st2">$y = 0$</text>
<text transform="matrix(1 0 0 1 360.25 162)" class="st1 st2">$y = 1$</text>
<text transform="matrix(1 0 0 1 432.5 162)" class="st1 st2">$y = 1.5$</text>
<circle class="st3" cx="216.5" cy="143.5" r="2"/>
<circle cx="216.5" cy="130.2" r="2"/>
<circle class="st3" cx="360.2" cy="130.2" r="2"/>
<circle cx="360.2" cy="108" r="2"/>
<circle cx="432.5" cy="72" r="2"/>
<circle class="st3" cx="432.5" cy="108" r="2"/>
<line class="st4" x1="216.5" y1="130.2" x2="360.2" y2="130.2"/>
<path class="st4" d="M466,100.8"/>
<line class="st5" x1="216.5" y1="130.2" x2="358.2" y2="130.2"/>
<line class="st0" x1="360.2" y1="108" x2="430.5" y2="108"/>
<line class="st0" x1="417.8" y1="-10.8" x2="417.8" y2="-11"/>
<line class="st0" x1="432.5" y1="72" x2="504" y2="72"/>
<g>
	<g>
		<line class="st6" x1="360.2" y1="111.8" x2="360.2" y2="126.5"/>
		<g>
			<polygon points="360.2,110 359.2,112.5 360.2,111.9 361.3,112.5 			"/>
		</g>
		<g>
			<polygon points="360.2,128.2 359.2,125.8 360.2,126.4 361.3,125.8 			"/>
		</g>
	</g>
</g>
<g>
	<g>
		<line class="st6" x1="432.5" y1="75.8" x2="432.5" y2="104.2"/>
		<g>
			<polygon points="432.5,74 431.5,76.5 432.5,75.9 433.5,76.5 			"/>
		</g>
		<g>
			<polygon points="432.5,106 431.5,103.5 432.5,104.1 433.5,103.5 			"/>
		</g>
	</g>
</g>
<text transform="matrix(1 0 0 1 360.25 128.25)" class="st1 st2">$\frac{1}{6}$</text>
<text transform="matrix(1 0 0 1 432.5 106)" class="st1 st2">$\frac{1}{2}$</text>
<g>
	<g>
		<line class="st6" x1="216.5" y1="134" x2="216.5" y2="139.7"/>
		<g>
			<polygon points="216.5,132.2 215.5,134.7 216.5,134.1 217.5,134.7 			"/>
		</g>
		<g>
			<polygon points="216.5,141.5 215.5,139 216.5,139.6 217.5,139 			"/>
		</g>
	</g>
</g>
<text transform="matrix(1 0 0 1 216.5 141.5)" class="st1 st2">$\frac{1}{6}$</text>
</svg>
