<?xml version="1.0" encoding="utf-8"?>
<!-- Generator: Adobe Illustrator 21.1.0, SVG Export Plug-In . SVG Version: 6.00 Build 0)  -->
<svg version="1.1" id="Layer_1" xmlns="http://www.w3.org/2000/svg" xmlns:xlink="http://www.w3.org/1999/xlink" x="0px" y="0px"
	 viewBox="0 0 612 792" style="enable-background:new 0 0 612 792;" xml:space="preserve">
<style type="text/css">
	.st0{fill:none;stroke:#000000;stroke-miterlimit:10;}
	.st1{font-family:'MyriadPro-Regular';}
	.st2{font-size:12px;}
	.st3{fill:none;stroke:#000000;stroke-miterlimit:10;stroke-dasharray:11.4197,11.4197;}
	.st4{clip-path:url(#SVGID_2_);}
	.st5{clip-path:url(#SVGID_4_);fill:none;stroke:#000000;stroke-width:3;}
</style>
<g>
	<g>
		<line class="st0" x1="79.1" y1="215.5" x2="496.4" y2="215.5"/>
		<g>
			<polygon points="72,215.5 81.9,219.6 79.6,215.5 81.9,211.4 			"/>
		</g>
		<g>
			<polygon points="503.5,215.5 493.6,219.6 495.9,215.5 493.6,211.4 			"/>
		</g>
	</g>
</g>
<text transform="matrix(1 0 0 1 287.75 233.5)" class="st1 st2">$x = \mu$</text>
<g>
	<g>
		<line class="st0" x1="287.8" y1="215.5" x2="287.8" y2="209.5"/>
		<line class="st3" x1="287.8" y1="198.1" x2="287.8" y2="21.1"/>
		<line class="st0" x1="287.8" y1="15.4" x2="287.8" y2="9.4"/>
	</g>
</g>
<g>
	<g>
		<defs>
			<rect id="SVGID_1_" x="-0.2" y="-69" width="576" height="576"/>
		</defs>
		<clipPath id="SVGID_2_">
			<use xlink:href="#SVGID_1_"  style="overflow:visible;"/>
		</clipPath>
		<g class="st4">
			<defs>
				<rect id="SVGID_3_" x="-0.2" y="-69" width="576" height="576"/>
			</defs>
			<clipPath id="SVGID_4_">
				<use xlink:href="#SVGID_3_"  style="overflow:visible;"/>
			</clipPath>
			<path class="st5" d="M500.6,203.4C395.9,203.4,381.8,9.7,287.7,9.7S179.6,203.4,74.9,203.4"/>
		</g>
	</g>
</g>
<text transform="matrix(1 0 0 1 432 72)" class="st1 st2">bell shaped curve</text>
<text transform="matrix(1 0 0 1 72 17.5)" class="st1 st2">$f_{\mu, \sigma^2}$</text>
</svg>
